<svg width="20" height="21" viewBox="0 0 20 21" fill="none" xmlns="http://www.w3.org/2000/svg">
<path d="M10 12.1091C11.3807 12.1091 12.5 10.9898 12.5 9.60913C12.5 8.22842 11.3807 7.10913 10 7.10913C8.61929 7.10913 7.5 8.22842 7.5 9.60913C7.5 10.9898 8.61929 12.1091 10 12.1091Z" stroke="#345457" stroke-width="2" stroke-linecap="round" stroke-linejoin="round"/>
<path d="M14.7143 14.3233L11.1785 17.8591C10.866 18.1713 10.4423 18.3467 10.0006 18.3467C9.55885 18.3467 9.13518 18.1713 8.82267 17.8591L5.286 14.3233C4.35368 13.3909 3.71878 12.203 3.46157 10.9098C3.20437 9.61663 3.33641 8.27621 3.841 7.05805C4.3456 5.8399 5.20008 4.79873 6.2964 4.0662C7.39272 3.33367 8.68164 2.94269 10.0002 2.94269C11.3187 2.94269 12.6076 3.33367 13.7039 4.0662C14.8003 4.79873 15.6547 5.8399 16.1593 7.05805C16.6639 8.27621 16.796 9.61663 16.5388 10.9098C16.2816 12.203 15.6466 13.3909 14.7143 14.3233Z" stroke="#345457" stroke-width="2" stroke-linecap="round" stroke-linejoin="round"/>
</svg>
