<svg width="19" height="20" viewBox="0 0 19 20" fill="none" xmlns="http://www.w3.org/2000/svg">
<g clip-path="url(#clip0_93_856)">
<path d="M9.60304 1.66669C5.32628 1.66669 1.86304 5.40002 1.86304 10C1.86304 14.6 5.32628 18.3334 9.60304 18.3334C13.8875 18.3334 17.3585 14.6 17.3585 10C17.3585 5.40002 13.8875 1.66669 9.60304 1.66669ZM9.61079 16.6667C6.18628 16.6667 3.41259 13.6834 3.41259 10C3.41259 6.31669 6.18628 3.33335 9.61079 3.33335C13.0353 3.33335 15.809 6.31669 15.809 10C15.809 13.6834 13.0353 16.6667 9.61079 16.6667ZM9.99817 5.83335H8.83601V10.8334L12.9036 13.4584L13.4847 12.4334L9.99817 10.2084V5.83335Z" fill="#345457"/>
</g>
<defs>
<clipPath id="clip0_93_856">
<rect width="18.5946" height="20" fill="white" transform="translate(0.313477)"/>
</clipPath>
</defs>
</svg>
