<svg width="20" height="20" viewBox="0 0 20 20" fill="none" xmlns="http://www.w3.org/2000/svg">
<g clip-path="url(#clip0_93_851)">
<path d="M9.99992 4.99998C13.1583 4.99998 15.9749 6.77498 17.3499 9.58331C15.9749 12.3916 13.1583 14.1666 9.99992 14.1666C6.84158 14.1666 4.02492 12.3916 2.64992 9.58331C4.02492 6.77498 6.84158 4.99998 9.99992 4.99998ZM9.99992 3.33331C5.83325 3.33331 2.27492 5.92498 0.833252 9.58331C2.27492 13.2416 5.83325 15.8333 9.99992 15.8333C14.1666 15.8333 17.7249 13.2416 19.1666 9.58331C17.7249 5.92498 14.1666 3.33331 9.99992 3.33331ZM9.99992 7.49998C11.1499 7.49998 12.0833 8.43331 12.0833 9.58331C12.0833 10.7333 11.1499 11.6666 9.99992 11.6666C8.84992 11.6666 7.91658 10.7333 7.91658 9.58331C7.91658 8.43331 8.84992 7.49998 9.99992 7.49998ZM9.99992 5.83331C7.93325 5.83331 6.24992 7.51665 6.24992 9.58331C6.24992 11.65 7.93325 13.3333 9.99992 13.3333C12.0666 13.3333 13.7499 11.65 13.7499 9.58331C13.7499 7.51665 12.0666 5.83331 9.99992 5.83331Z" fill="#345457"/>
</g>
<defs>
<clipPath id="clip0_93_851">
<rect width="20" height="20" fill="white"/>
</clipPath>
</defs>
</svg>
